<mxfile host="app.diagrams.net" modified="2023-07-24T13:24:29.499Z" agent="Mozilla/5.0 (Macintosh; Intel Mac OS X 10.15; rv:109.0) Gecko/20100101 Firefox/115.0" version="21.5.2" etag="5AeUcA3TNs8iDKDrTKvO" type="github">
  <diagram name="Sayfa -1" id="XkHaaAAPW6nmZrwK_j3l">
    <mxGraphModel>
      <root>
        <mxCell id="0" />
        <mxCell id="1" parent="0" />
      </root>
    </mxGraphModel>
  </diagram>
</mxfile>
